<svg xmlns="http://www.w3.org/2000/svg" width="32" height="32" viewBox="0 0 32 32" fill="none">
  <circle cx="16" cy="16" r="14" fill="#111827" stroke="#FF9500" stroke-width="2"/>
  <circle cx="16" cy="16" r="9" stroke="#FF3B30" stroke-width="1.5" opacity="0.8"/>
  <circle cx="16" cy="16" r="5" stroke="#FFCC00" stroke-width="1" opacity="0.6"/>
  <circle cx="16" cy="16" r="2" fill="#FF3B30"/>
  <path d="M16 2C16 2 20 8 20 16C20 24 16 30 16 30" stroke="#FF9500" stroke-width="1.5" stroke-linecap="round" opacity="0.7"/>
  <path d="M16 2C16 2 12 8 12 16C12 24 16 30 16 30" stroke="#FF9500" stroke-width="1.5" stroke-linecap="round" opacity="0.7"/>
  <path d="M2 16C2 16 8 12 16 12C24 12 30 16 30 16" stroke="#FF9500" stroke-width="1.5" stroke-linecap="round" opacity="0.7"/>
  <path d="M2 16C2 16 8 20 16 20C24 20 30 16 30 16" stroke="#FF9500" stroke-width="1.5" stroke-linecap="round" opacity="0.7"/>
</svg>